<svg width="186" height="115" viewBox="0 0 186 115" fill="none" xmlns="http://www.w3.org/2000/svg">
<path fill-rule="evenodd" clip-rule="evenodd" d="M155.185 44.4587C156.249 43.327 158.02 43.2987 159.131 44.3738C160.251 45.4489 160.293 47.2314 159.229 48.3631L140.588 68.1964C140.04 68.7906 139.303 69.0735 138.566 69.0735C137.873 69.0735 137.181 68.8188 136.642 68.2813L117.071 49.4099C115.953 48.3348 115.909 46.5524 116.976 45.4206C118.04 44.2889 119.807 44.2323 120.922 45.3075L136.393 60.2461C137.918 33.3113 118.528 9.37553 91.738 6.06527C78.2242 4.39599 64.8751 8.15894 54.1512 16.6468C43.43 25.1347 36.6159 37.3572 34.9682 51.0509C33.3205 64.7447 37.0348 78.2687 45.4268 89.1331C53.8189 99.9976 65.8805 106.901 79.3971 108.57C100.231 111.145 120.24 100.761 130.314 82.0599C131.054 80.7019 132.752 80.1926 134.106 80.9565C135.458 81.6921 135.958 83.418 135.217 84.776C125.167 103.421 106.235 114.625 85.703 114.625C83.3907 114.625 81.0616 114.484 78.7213 114.201C63.7217 112.333 50.3364 104.694 41.0255 92.6414C31.7147 80.5887 27.5955 65.5652 29.4247 50.3719C31.2511 35.1786 38.8109 21.6263 50.7078 12.1765C62.6047 2.755 77.4004 -1.43234 92.4139 0.434986C121.416 4.02818 142.666 29.3786 142.118 58.3788L155.185 44.4587ZM61.2478 69.6265V73.6875H82.2952V69.1025H69.0642C70.4324 67.9963 71.8443 66.7955 73.2998 65.5C74.7554 64.2046 76.1091 62.8145 77.3608 61.3298C78.6126 59.8452 79.6242 58.3023 80.3957 56.7012C81.1671 55.1 81.5528 53.4553 81.5528 51.7668C81.5528 49.0595 80.6868 46.8543 78.9547 45.1513C77.2225 43.4483 74.7991 42.5968 71.6842 42.5968C69.7628 42.5968 68.0307 42.968 66.4878 43.7103C64.9449 44.4527 63.7077 45.5734 62.7762 47.0727C61.8446 48.5719 61.3497 50.4423 61.2915 52.6838H66.7062C66.7062 51.1992 67.1137 49.9328 67.9288 48.8848C68.7439 47.8368 69.952 47.3128 71.5532 47.3128C73.1252 47.3128 74.2532 47.7932 74.9373 48.7538C75.6214 49.7145 75.9635 50.8207 75.9635 52.0725C75.9635 53.4116 75.5487 54.7871 74.719 56.199C73.8893 57.6109 72.7831 59.0592 71.4003 60.5438C70.0175 62.0285 68.4456 63.5277 66.6843 65.0415C64.9231 66.5553 63.111 68.0836 61.2478 69.6265ZM100.897 68.0108V73.6875H106.487V68.0108H110.504V63.1638H106.487V43.1208H100.155L85.8322 63.5568V68.0108H100.897ZM101.246 63.1638H91.8145L101.246 49.2778V63.1638Z" fill="url(#paint0_linear)"/>
<defs>
<linearGradient id="paint0_linear" x1="94.5" y1="-57.3125" x2="-19.1106" y2="72.5282" gradientUnits="userSpaceOnUse">
<stop stop-color="#FFC105"/>
<stop offset="1" stop-color="#737CFF"/>
</linearGradient>
</defs>
</svg>
