<svg width="240" height="200" viewBox="0 0 240 200" fill="none" xmlns="http://www.w3.org/2000/svg">
<path fill-rule="evenodd" clip-rule="evenodd" d="M202.707 85.8706C203.877 84.6266 205.823 84.5955 207.045 85.7773C208.276 86.9591 208.322 88.9185 207.153 90.1625L186.661 111.964C186.06 112.617 185.249 112.928 184.439 112.928C183.678 112.928 182.916 112.648 182.324 112.057L160.81 91.3132C159.582 90.1314 159.533 88.1721 160.706 86.928C161.876 85.684 163.819 85.6218 165.044 86.8036L182.051 103.225C183.727 73.617 162.413 47.3059 132.964 43.6672C118.109 41.8322 103.435 45.9686 91.6471 55.2988C79.862 64.6289 72.3716 78.0644 70.5604 93.1171C68.7492 108.17 72.8321 123.036 82.0569 134.978C91.2818 146.921 104.54 154.51 119.398 156.344C142.299 159.175 164.295 147.761 175.368 127.203C176.181 125.71 178.048 125.151 179.536 125.99C181.022 126.799 181.572 128.696 180.758 130.189C169.71 150.684 148.899 163 126.33 163C123.788 163 121.228 162.844 118.655 162.533C102.167 160.481 87.4537 152.084 77.2189 138.835C66.9841 125.586 62.4561 109.072 64.4668 92.3706C66.4745 75.6696 74.7845 60.7725 87.862 50.3849C100.939 40.0284 117.203 35.4255 133.707 37.4782C165.587 41.4279 188.945 69.294 188.344 101.172L202.707 85.8706ZM99.448 113.536V118H122.584V112.96H108.04C109.544 111.744 111.096 110.424 112.696 109C114.296 107.576 115.784 106.048 117.16 104.416C118.536 102.784 119.648 101.088 120.496 99.328C121.344 97.568 121.768 95.76 121.768 93.904C121.768 90.928 120.816 88.504 118.912 86.632C117.008 84.76 114.344 83.824 110.92 83.824C108.808 83.824 106.904 84.232 105.208 85.048C103.512 85.864 102.152 87.096 101.128 88.744C100.104 90.392 99.56 92.448 99.496 94.912H105.448C105.448 93.28 105.896 91.888 106.792 90.736C107.688 89.584 109.016 89.008 110.776 89.008C112.504 89.008 113.744 89.536 114.496 90.592C115.248 91.648 115.624 92.864 115.624 94.24C115.624 95.712 115.168 97.224 114.256 98.776C113.344 100.328 112.128 101.92 110.608 103.552C109.088 105.184 107.36 106.832 105.424 108.496C103.488 110.16 101.496 111.84 99.448 113.536ZM143.032 111.76V118H149.176V111.76H153.592V106.432H149.176V84.4H142.216L126.472 106.864V111.76H143.032ZM143.416 106.432H133.048L143.416 91.168V106.432Z" fill="url(#paint0_linear)"/>
<defs>
<linearGradient id="paint0_linear" x1="136" y1="-26" x2="11.115" y2="116.726" gradientUnits="userSpaceOnUse">
<stop stop-color="#FFC105"/>
<stop offset="1" stop-color="#737CFF"/>
</linearGradient>
</defs>
</svg>
