<svg width="200" height="160" viewBox="0 0 200 160" fill="none" xmlns="http://www.w3.org/2000/svg">
<path fill-rule="evenodd" clip-rule="evenodd" d="M174.707 65.8706C175.877 64.6266 177.823 64.5955 179.045 65.7773C180.276 66.9591 180.322 68.9185 179.153 70.1625L158.661 91.964C158.06 92.6171 157.249 92.9281 156.439 92.9281C155.678 92.9281 154.916 92.6482 154.324 92.0573L132.81 71.3132C131.582 70.1314 131.533 68.1721 132.706 66.928C133.876 65.684 135.819 65.6218 137.044 66.8036L154.051 83.2247C155.727 53.617 134.413 27.3059 104.964 23.6672C90.109 21.8322 75.4353 25.9686 63.6471 35.2988C51.862 44.6289 44.3716 58.0644 42.5604 73.1171C40.7492 88.1697 44.8321 103.036 54.0569 114.978C63.2818 126.921 76.5404 134.51 91.3984 136.344C114.299 139.175 136.295 127.761 147.368 107.203C148.181 105.71 150.048 105.151 151.536 105.99C153.022 106.799 153.572 108.696 152.758 110.189C141.71 130.684 120.899 143 98.3301 143C95.7882 143 93.228 142.844 90.6555 142.533C74.1674 140.481 59.4537 132.084 49.2189 118.835C38.9841 105.586 34.4561 89.0716 36.4668 72.3706C38.4745 55.6696 46.7845 40.7725 59.862 30.3849C72.9395 20.0284 89.2034 15.4255 105.707 17.4782C137.587 21.4279 160.945 49.294 160.344 81.1721L174.707 65.8706ZM71.448 93.536V98H94.584V92.96H80.04C81.544 91.744 83.096 90.424 84.696 89C86.296 87.576 87.784 86.048 89.16 84.416C90.536 82.784 91.648 81.088 92.496 79.328C93.344 77.568 93.768 75.76 93.768 73.904C93.768 70.928 92.816 68.504 90.912 66.632C89.008 64.76 86.344 63.824 82.92 63.824C80.808 63.824 78.904 64.232 77.208 65.048C75.512 65.864 74.152 67.096 73.128 68.744C72.104 70.392 71.56 72.448 71.496 74.912H77.448C77.448 73.28 77.896 71.888 78.792 70.736C79.688 69.584 81.016 69.008 82.776 69.008C84.504 69.008 85.744 69.536 86.496 70.592C87.248 71.648 87.624 72.864 87.624 74.24C87.624 75.712 87.168 77.224 86.256 78.776C85.344 80.328 84.128 81.92 82.608 83.552C81.088 85.184 79.36 86.832 77.424 88.496C75.488 90.16 73.496 91.84 71.448 93.536ZM115.032 91.76V98H121.176V91.76H125.592V86.432H121.176V64.4H114.216L98.472 86.864V91.76H115.032ZM115.416 86.432H105.048L115.416 71.168V86.432Z" fill="url(#paint0_linear)"/>
<defs>
<linearGradient id="paint0_linear" x1="108" y1="-46" x2="-16.885" y2="96.7257" gradientUnits="userSpaceOnUse">
<stop stop-color="#FFC105"/>
<stop offset="1" stop-color="#737CFF"/>
</linearGradient>
</defs>
</svg>
