<svg width="240" height="200" viewBox="0 0 240 200" fill="none" xmlns="http://www.w3.org/2000/svg">
<path fill-rule="evenodd" clip-rule="evenodd" d="M155 52H47V130H65.3001C65.1033 130.969 65 131.973 65 133C65 141.284 71.7157 148 80 148C88.2843 148 95 141.284 95 133C95 131.973 94.8967 130.969 94.6999 130H149H155H155.3C155.103 130.969 155 131.973 155 133C155 141.284 161.716 148 170 148C178.284 148 185 141.284 185 133C185 131.973 184.897 130.969 184.7 130H197V94L185 70H155V52ZM170 118C174.907 118 179.264 120.357 182.001 124H191V100H155V124H157.999C160.736 120.357 165.093 118 170 118ZM181.292 76L190.292 94H173V76H181.292ZM167 76H155V94H167V76ZM92.0011 124H149V70V58H53V124H67.9989C70.7355 120.357 75.0925 118 80 118C84.9075 118 89.2645 120.357 92.0011 124ZM41 64H11V70H41V64ZM23 76H41V82H23V76ZM41 88H29V94H41V88Z" fill="url(#paint0_linear)"/>
<defs>
<linearGradient id="paint0_linear" x1="104" y1="4" x2="25.7486" y2="155.612" gradientUnits="userSpaceOnUse">
<stop stop-color="#FFC105"/>
<stop offset="1" stop-color="#737CFF"/>
</linearGradient>
</defs>
</svg>
