<svg width="186" height="114" viewBox="0 0 186 114" fill="none" xmlns="http://www.w3.org/2000/svg">
<path fill-rule="evenodd" clip-rule="evenodd" d="M144 9H36V87H54.3001C54.1033 87.9693 54 88.9726 54 90C54 98.2843 60.7157 105 69 105C77.2843 105 84 98.2843 84 90C84 88.9726 83.8967 87.9693 83.6999 87H138H144H144.3C144.103 87.9693 144 88.9726 144 90C144 98.2843 150.716 105 159 105C167.284 105 174 98.2843 174 90C174 88.9726 173.897 87.9693 173.7 87H186V51L174 27H144V9ZM159 75C163.907 75 168.264 77.3567 171.001 81H180V57H144V81H146.999C149.736 77.3567 154.093 75 159 75ZM170.292 33L179.292 51H162V33H170.292ZM156 33H144V51H156V33ZM81.0011 81H138V27V15H42V81H56.9989C59.7355 77.3567 64.0925 75 69 75C73.9075 75 78.2645 77.3567 81.0011 81ZM30 21H0V27H30V21ZM12 33H30V39H12V33ZM30 45H18V51H30V45Z" fill="url(#paint0_linear)"/>
<defs>
<linearGradient id="paint0_linear" x1="93" y1="-39" x2="14.7486" y2="112.612" gradientUnits="userSpaceOnUse">
<stop stop-color="#FFC105"/>
<stop offset="1" stop-color="#737CFF"/>
</linearGradient>
</defs>
</svg>
