<svg width="200" height="160" viewBox="0 0 200 160" fill="none" xmlns="http://www.w3.org/2000/svg">
<g clip-path="url(#clip0)">
<path fill-rule="evenodd" clip-rule="evenodd" d="M143 32H35V110H53.3001C53.1033 110.969 53 111.973 53 113C53 121.284 59.7157 128 68 128C76.2843 128 83 121.284 83 113C83 111.973 82.8967 110.969 82.6999 110H137H143H143.3C143.103 110.969 143 111.973 143 113C143 121.284 149.716 128 158 128C166.284 128 173 121.284 173 113C173 111.973 172.897 110.969 172.7 110H185V74L173 50H143V32ZM158 98C162.907 98 167.264 100.357 170.001 104H179V80H143V104H145.999C148.736 100.357 153.093 98 158 98ZM169.292 56L178.292 74H161V56H169.292ZM155 56H143V74H155V56ZM80.0011 104H137V50V38H41V104H55.9989C58.7355 100.357 63.0925 98 68 98C72.9075 98 77.2645 100.357 80.0011 104ZM29 44H-1V50H29V44ZM11 56H29V62H11V56ZM29 68H17V74H29V68Z" fill="url(#paint0_linear)"/>
</g>
<defs>
<linearGradient id="paint0_linear" x1="92" y1="-16" x2="13.7486" y2="135.612" gradientUnits="userSpaceOnUse">
<stop stop-color="#FFC105"/>
<stop offset="1" stop-color="#737CFF"/>
</linearGradient>
<clipPath id="clip0">
<rect width="200" height="160" fill="white"/>
</clipPath>
</defs>
</svg>
